# xmcd CD database file
#
# Track frame offsets:
#	183
#	10755
#	25195
#	40148
#	55023
#	69918
#	83530
#	96908
#	111140
#	125000
#	137970
#	148593
#	162240
#	177390
#	190770
#	203933
#	217505
#	231433
#	243093
#	258090
#
# Disc length: 3598 seconds
#
# Revision: 0
# Processed by: cddbd v1.5PL3 Copyright (c) Steve Scherf et al.
# Submitted via: CDex 1.51
#
DISCID=090e0c14
DTITLE=Sarah Vaughan - Thinking Of You
DYEAR=1900
DGENRE=Jazz
TTITLE0=Lonely Girl
TTITLE1=You're Mine, You
TTITLE2=I'll Know
TTITLE3=Black Coffee
TTITLE4=You Taught Me To Love Again
TTITLE5=I'm Crazy To Love You
TTITLE6=Time To Go
TTITLE7=While You Are Gone
TTITLE8=Thinking Of You
TTITLE9=After Hours
TTITLE10=I Confess
TTITLE11=Just Friends
TTITLE12=The Nearness Of You
TTITLE13=Corner To Corner
TTITLE14=Don't Be Afraid
TTITLE15=These Things I Offer You
TTITLE16=Street Of Dreams
TTITLE17=As You Desire Me
TTITLE18=Just A Moment More
TTITLE19=A Blue Serenade
EXTD=
EXTT0=
EXTT1=
EXTT2=
EXTT3=
EXTT4=
EXTT5=
EXTT6=
EXTT7=
EXTT8=
EXTT9=
EXTT10=
EXTT11=
EXTT12=
EXTT13=
EXTT14=
EXTT15=
EXTT16=
EXTT17=
EXTT18=
EXTT19=
PLAYORDER=
